<svg width="243" height="43" viewBox="0 0 243 43" fill="none" xmlns="http://www.w3.org/2000/svg">
<path d="M23.3902 36.8404L0.0495322 19.4408L0.112823 2.02201L0 2L23.3957 18.995L46.7804 2L46.7089 2.02201V36.7991H36.12L36.0704 27.7292L23.3902 36.8404Z" fill="#1E1E1E"/>
<path d="M0.0110072 27.8667V36.9779L13.049 36.9999L0 27.8887" fill="#1E1E1E"/>
<path d="M62.079 33V9.999H68.976L74.652 26.202H73.794L79.47 9.999H86.367V33H81.648V15.543L82.077 15.609L76.533 30.954H71.946L66.369 15.609L66.798 15.543V33H62.079ZM90.5351 33V9.999H95.2541V28.776H104.857V33H90.5351ZM115.833 33V9.999H120.552V33H115.833ZM124.53 33V16.731H129.051V20.493L128.391 20.526C128.677 19.492 129.095 18.678 129.645 18.084C130.217 17.468 130.866 17.039 131.592 16.797C132.318 16.533 133.044 16.401 133.77 16.401C135.64 16.401 137.092 16.929 138.126 17.985C139.182 19.019 139.71 20.449 139.71 22.275V33H135.156V23.958C135.156 22.704 134.925 21.791 134.463 21.219C134.023 20.625 133.319 20.328 132.351 20.328C131.625 20.328 131.009 20.504 130.503 20.856C130.019 21.208 129.656 21.747 129.414 22.473C129.172 23.199 129.051 24.145 129.051 25.311V33H124.53ZM149.786 33.33C148.884 33.33 148.037 33.165 147.245 32.835C146.453 32.483 145.815 31.922 145.331 31.152C144.847 30.382 144.605 29.337 144.605 28.017V13.134L149.192 10.692V26.73C149.192 27.698 149.313 28.424 149.555 28.908C149.819 29.392 150.314 29.634 151.04 29.634C151.26 29.634 151.502 29.612 151.766 29.568C152.052 29.524 152.349 29.458 152.657 29.37V32.835C152.195 33.011 151.722 33.132 151.238 33.198C150.776 33.286 150.292 33.33 149.786 33.33ZM141.767 20.262V16.731H152.657V20.262H141.767ZM162.763 33.33C161.311 33.33 160.057 33.099 159.001 32.637C157.967 32.175 157.12 31.548 156.46 30.756C155.822 29.964 155.349 29.073 155.041 28.083C154.755 27.071 154.612 26.026 154.612 24.948C154.612 23.914 154.755 22.891 155.041 21.879C155.349 20.867 155.811 19.954 156.427 19.14C157.043 18.304 157.857 17.644 158.869 17.16C159.881 16.654 161.091 16.401 162.499 16.401C163.753 16.401 164.853 16.621 165.799 17.061C166.767 17.479 167.57 18.073 168.208 18.843C168.846 19.591 169.319 20.482 169.627 21.516C169.957 22.55 170.122 23.661 170.122 24.849C170.122 25.047 170.111 25.278 170.089 25.542C170.089 25.806 170.067 26.103 170.023 26.433H159.133C159.265 27.445 159.694 28.204 160.42 28.71C161.146 29.194 162.015 29.436 163.027 29.436C163.841 29.436 164.655 29.293 165.469 29.007C166.283 28.721 166.998 28.314 167.614 27.786L169.693 30.954C168.879 31.526 168.12 31.988 167.416 32.34C166.734 32.692 166.019 32.945 165.271 33.099C164.545 33.253 163.709 33.33 162.763 33.33ZM165.667 24.156C165.711 23.98 165.744 23.804 165.766 23.628C165.81 23.452 165.832 23.287 165.832 23.133C165.832 22.693 165.744 22.297 165.568 21.945C165.414 21.571 165.194 21.252 164.908 20.988C164.622 20.724 164.281 20.526 163.885 20.394C163.489 20.24 163.049 20.163 162.565 20.163C161.795 20.163 161.157 20.317 160.651 20.625C160.167 20.911 159.793 21.274 159.529 21.714C159.287 22.154 159.133 22.605 159.067 23.067H167.185L165.667 24.156ZM173.257 33V16.731H177.811V21.153L177.184 21.186C177.25 20.262 177.514 19.437 177.976 18.711C178.46 17.985 179.065 17.424 179.791 17.028C180.517 16.61 181.265 16.401 182.035 16.401C182.585 16.401 183.113 16.478 183.619 16.632C184.125 16.786 184.664 17.039 185.236 17.391L183.058 21.483C182.816 21.329 182.497 21.197 182.101 21.087C181.727 20.955 181.342 20.889 180.946 20.889C180.55 20.889 180.165 20.966 179.791 21.12C179.417 21.274 179.087 21.505 178.801 21.813C178.515 22.099 178.284 22.484 178.108 22.968C177.998 23.276 177.91 23.672 177.844 24.156C177.8 24.618 177.778 25.311 177.778 26.235V33H173.257ZM187.5 33V16.731H192.021V33H187.5ZM187.434 14.355V9.999H192.153V14.355H187.434ZM203.372 33.33C201.788 33.33 200.369 32.967 199.115 32.241C197.861 31.515 196.871 30.514 196.145 29.238C195.441 27.94 195.089 26.477 195.089 24.849C195.089 23.199 195.441 21.736 196.145 20.46C196.871 19.184 197.85 18.194 199.082 17.49C200.336 16.764 201.766 16.401 203.372 16.401C204.956 16.401 206.364 16.764 207.596 17.49C208.85 18.194 209.829 19.184 210.533 20.46C211.259 21.736 211.622 23.199 211.622 24.849C211.622 26.477 211.259 27.94 210.533 29.238C209.829 30.514 208.85 31.515 207.596 32.241C206.364 32.967 204.956 33.33 203.372 33.33ZM203.372 29.37C204.164 29.37 204.835 29.194 205.385 28.842C205.935 28.49 206.353 27.973 206.639 27.291C206.925 26.609 207.068 25.795 207.068 24.849C207.068 23.881 206.925 23.067 206.639 22.407C206.353 21.747 205.935 21.241 205.385 20.889C204.835 20.537 204.164 20.361 203.372 20.361C202.58 20.361 201.898 20.537 201.326 20.889C200.776 21.241 200.347 21.747 200.039 22.407C199.753 23.067 199.61 23.881 199.61 24.849C199.61 25.795 199.753 26.609 200.039 27.291C200.347 27.973 200.776 28.49 201.326 28.842C201.898 29.194 202.58 29.37 203.372 29.37ZM214.7 33V16.731H219.254V21.153L218.627 21.186C218.693 20.262 218.957 19.437 219.419 18.711C219.903 17.985 220.508 17.424 221.234 17.028C221.96 16.61 222.708 16.401 223.478 16.401C224.028 16.401 224.556 16.478 225.062 16.632C225.568 16.786 226.107 17.039 226.679 17.391L224.501 21.483C224.259 21.329 223.94 21.197 223.544 21.087C223.17 20.955 222.785 20.889 222.389 20.889C221.993 20.889 221.608 20.966 221.234 21.12C220.86 21.274 220.53 21.505 220.244 21.813C219.958 22.099 219.727 22.484 219.551 22.968C219.441 23.276 219.353 23.672 219.287 24.156C219.243 24.618 219.221 25.311 219.221 26.235V33H214.7ZM234.234 33.33C233.002 33.33 231.924 33.154 231 32.802C230.076 32.45 229.306 32.021 228.69 31.515C228.074 30.987 227.568 30.503 227.172 30.063L230.274 27.357C230.648 27.907 231.154 28.435 231.792 28.941C232.452 29.447 233.277 29.7 234.267 29.7C234.993 29.7 235.554 29.557 235.95 29.271C236.368 28.985 236.577 28.655 236.577 28.281C236.577 27.929 236.445 27.654 236.181 27.456C235.917 27.236 235.565 27.049 235.125 26.895C234.685 26.741 234.19 26.587 233.64 26.433C233.024 26.279 232.386 26.092 231.726 25.872C231.066 25.63 230.45 25.322 229.878 24.948C229.306 24.574 228.844 24.101 228.492 23.529C228.14 22.935 227.964 22.198 227.964 21.318C227.964 19.844 228.536 18.656 229.68 17.754C230.846 16.852 232.364 16.401 234.234 16.401C235.554 16.401 236.753 16.654 237.831 17.16C238.909 17.666 239.767 18.403 240.405 19.371L237.6 21.582C237.204 21.01 236.698 20.57 236.082 20.262C235.466 19.932 234.817 19.767 234.135 19.767C233.563 19.767 233.09 19.877 232.716 20.097C232.364 20.295 232.188 20.559 232.188 20.889C232.188 21.131 232.276 21.34 232.452 21.516C232.628 21.67 232.914 21.813 233.31 21.945C233.706 22.077 234.245 22.231 234.927 22.407C235.565 22.561 236.236 22.748 236.94 22.968C237.644 23.188 238.304 23.496 238.92 23.892C239.558 24.266 240.064 24.772 240.438 25.41C240.834 26.026 241.032 26.807 241.032 27.753C241.032 28.853 240.746 29.832 240.174 30.69C239.624 31.526 238.832 32.175 237.798 32.637C236.786 33.099 235.598 33.33 234.234 33.33Z" fill="#1E1E1E"/>
</svg>
