<svg width="193" height="36" viewBox="0 0 193 36" fill="none" xmlns="http://www.w3.org/2000/svg">
<path d="M23.3902 35.6354L0.0495322 18.2358L0.112823 0.817012L0 0.794998L23.3957 17.79L46.7804 0.794998L46.7089 0.817012V35.5941H36.12L36.0704 26.5242L23.3902 35.6354Z" fill="white"/>
<path d="M0.0110072 26.6618V35.773L13.049 35.795L0 26.6838" fill="white"/>
<path d="M61.512 28.795V12.067H66.528L70.656 23.851H70.032L74.16 12.067H79.176V28.795H75.744V16.099L76.056 16.147L72.024 27.307H68.688L64.632 16.147L64.944 16.099V28.795H61.512ZM82.2073 28.795V12.067H85.6393V25.723H92.6233V28.795H82.2073ZM100.606 28.795V12.067H104.038V28.795H100.606ZM106.931 28.795V16.963H110.219V19.699L109.739 19.723C109.947 18.971 110.251 18.379 110.651 17.947C111.067 17.499 111.539 17.187 112.067 17.011C112.595 16.819 113.123 16.723 113.651 16.723C115.011 16.723 116.067 17.107 116.819 17.875C117.587 18.627 117.971 19.667 117.971 20.995V28.795H114.659V22.219C114.659 21.307 114.491 20.643 114.155 20.227C113.835 19.795 113.323 19.579 112.619 19.579C112.091 19.579 111.643 19.707 111.275 19.963C110.923 20.219 110.659 20.611 110.483 21.139C110.307 21.667 110.219 22.355 110.219 23.203V28.795H106.931ZM125.299 29.035C124.643 29.035 124.027 28.915 123.451 28.675C122.875 28.419 122.411 28.011 122.059 27.451C121.707 26.891 121.531 26.131 121.531 25.171V14.347L124.867 12.571V24.235C124.867 24.939 124.955 25.467 125.131 25.819C125.323 26.171 125.683 26.347 126.211 26.347C126.371 26.347 126.547 26.331 126.739 26.299C126.947 26.267 127.163 26.219 127.387 26.155V28.675C127.051 28.803 126.707 28.891 126.355 28.939C126.019 29.003 125.667 29.035 125.299 29.035ZM119.467 19.531V16.963H127.387V19.531H119.467ZM134.737 29.035C133.681 29.035 132.769 28.867 132.001 28.531C131.249 28.195 130.633 27.739 130.153 27.163C129.689 26.587 129.345 25.939 129.121 25.219C128.913 24.483 128.809 23.723 128.809 22.939C128.809 22.187 128.913 21.443 129.121 20.707C129.345 19.971 129.681 19.307 130.129 18.715C130.577 18.107 131.169 17.627 131.905 17.275C132.641 16.907 133.521 16.723 134.545 16.723C135.457 16.723 136.257 16.883 136.945 17.203C137.649 17.507 138.233 17.939 138.697 18.499C139.161 19.043 139.505 19.691 139.729 20.443C139.969 21.195 140.089 22.003 140.089 22.867C140.089 23.011 140.081 23.179 140.065 23.371C140.065 23.563 140.049 23.779 140.017 24.019H132.097C132.193 24.755 132.505 25.307 133.033 25.675C133.561 26.027 134.193 26.203 134.929 26.203C135.521 26.203 136.113 26.099 136.705 25.891C137.297 25.683 137.817 25.387 138.265 25.003L139.777 27.307C139.185 27.723 138.633 28.059 138.121 28.315C137.625 28.571 137.105 28.755 136.561 28.867C136.033 28.979 135.425 29.035 134.737 29.035ZM136.849 22.363C136.881 22.235 136.905 22.107 136.921 21.979C136.953 21.851 136.969 21.731 136.969 21.619C136.969 21.299 136.905 21.011 136.777 20.755C136.665 20.483 136.505 20.251 136.297 20.059C136.089 19.867 135.841 19.723 135.553 19.627C135.265 19.515 134.945 19.459 134.593 19.459C134.033 19.459 133.569 19.571 133.201 19.795C132.849 20.003 132.577 20.267 132.385 20.587C132.209 20.907 132.097 21.235 132.049 21.571H137.953L136.849 22.363ZM142.369 28.795V16.963H145.681V20.179L145.225 20.203C145.273 19.531 145.465 18.931 145.801 18.403C146.153 17.875 146.593 17.467 147.121 17.179C147.649 16.875 148.193 16.723 148.753 16.723C149.153 16.723 149.537 16.779 149.905 16.891C150.273 17.003 150.665 17.187 151.081 17.443L149.497 20.419C149.321 20.307 149.089 20.211 148.801 20.131C148.529 20.035 148.249 19.987 147.961 19.987C147.673 19.987 147.393 20.043 147.121 20.155C146.849 20.267 146.609 20.435 146.401 20.659C146.193 20.867 146.025 21.147 145.897 21.499C145.817 21.723 145.753 22.011 145.705 22.363C145.673 22.699 145.657 23.203 145.657 23.875V28.795H142.369ZM152.727 28.795V16.963H156.015V28.795H152.727ZM152.679 15.235V12.067H156.111V15.235H152.679ZM164.27 29.035C163.118 29.035 162.086 28.771 161.174 28.243C160.262 27.715 159.542 26.987 159.014 26.059C158.502 25.115 158.246 24.051 158.246 22.867C158.246 21.667 158.502 20.603 159.014 19.675C159.542 18.747 160.254 18.027 161.15 17.515C162.062 16.987 163.102 16.723 164.27 16.723C165.422 16.723 166.446 16.987 167.342 17.515C168.254 18.027 168.966 18.747 169.478 19.675C170.006 20.603 170.27 21.667 170.27 22.867C170.27 24.051 170.006 25.115 169.478 26.059C168.966 26.987 168.254 27.715 167.342 28.243C166.446 28.771 165.422 29.035 164.27 29.035ZM164.27 26.155C164.846 26.155 165.334 26.027 165.734 25.771C166.134 25.515 166.438 25.139 166.646 24.643C166.854 24.147 166.958 23.555 166.958 22.867C166.958 22.163 166.854 21.571 166.646 21.091C166.438 20.611 166.134 20.243 165.734 19.987C165.334 19.731 164.846 19.603 164.27 19.603C163.694 19.603 163.198 19.731 162.782 19.987C162.382 20.243 162.07 20.611 161.846 21.091C161.638 21.571 161.534 22.163 161.534 22.867C161.534 23.555 161.638 24.147 161.846 24.643C162.07 25.139 162.382 25.515 162.782 25.771C163.198 26.027 163.694 26.155 164.27 26.155ZM172.509 28.795V16.963H175.821V20.179L175.365 20.203C175.413 19.531 175.605 18.931 175.941 18.403C176.293 17.875 176.733 17.467 177.261 17.179C177.789 16.875 178.333 16.723 178.893 16.723C179.293 16.723 179.677 16.779 180.045 16.891C180.413 17.003 180.805 17.187 181.221 17.443L179.637 20.419C179.461 20.307 179.229 20.211 178.941 20.131C178.669 20.035 178.389 19.987 178.101 19.987C177.813 19.987 177.533 20.043 177.261 20.155C176.989 20.267 176.749 20.435 176.541 20.659C176.333 20.867 176.165 21.147 176.037 21.499C175.957 21.723 175.893 22.011 175.845 22.363C175.813 22.699 175.797 23.203 175.797 23.875V28.795H172.509ZM186.716 29.035C185.82 29.035 185.036 28.907 184.364 28.651C183.692 28.395 183.132 28.083 182.684 27.715C182.236 27.331 181.868 26.979 181.58 26.659L183.836 24.691C184.108 25.091 184.476 25.475 184.94 25.843C185.42 26.211 186.02 26.395 186.74 26.395C187.268 26.395 187.676 26.291 187.964 26.083C188.268 25.875 188.42 25.635 188.42 25.363C188.42 25.107 188.324 24.907 188.132 24.763C187.94 24.603 187.684 24.467 187.364 24.355C187.044 24.243 186.684 24.131 186.284 24.019C185.836 23.907 185.372 23.771 184.892 23.611C184.412 23.435 183.964 23.211 183.548 22.939C183.132 22.667 182.796 22.323 182.54 21.907C182.284 21.475 182.156 20.939 182.156 20.299C182.156 19.227 182.572 18.363 183.404 17.707C184.252 17.051 185.356 16.723 186.716 16.723C187.676 16.723 188.548 16.907 189.332 17.275C190.116 17.643 190.74 18.179 191.204 18.883L189.164 20.491C188.876 20.075 188.508 19.755 188.06 19.531C187.612 19.291 187.14 19.171 186.644 19.171C186.228 19.171 185.884 19.251 185.612 19.411C185.356 19.555 185.228 19.747 185.228 19.987C185.228 20.163 185.292 20.315 185.42 20.443C185.548 20.555 185.756 20.659 186.044 20.755C186.332 20.851 186.724 20.963 187.22 21.091C187.684 21.203 188.172 21.339 188.684 21.499C189.196 21.659 189.676 21.883 190.124 22.171C190.588 22.443 190.956 22.811 191.228 23.275C191.516 23.723 191.66 24.291 191.66 24.979C191.66 25.779 191.452 26.491 191.036 27.115C190.636 27.723 190.06 28.195 189.308 28.531C188.572 28.867 187.708 29.035 186.716 29.035Z" fill="white"/>
</svg>
